# xmcd
#
# Track frame offsets:
#	150
#	10225
#	26167
#	42599
#	59878
#	74569
#	87855
#	108809
#	123805
#	139751
#
# Disc length: 2066 seconds
#
# Revision: 1
# Processed by: cddbd v1.5.2PL0 Copyright (c) Steve Scherf et al.
# Submitted via: audiograbber 1.83.01
#
DISCID=8d08100a
DTITLE=s - ss
DYEAR=1900
DGENRE=
TTITLE0=s
TTITLE1=s
TTITLE2=s
TTITLE3=s
TTITLE4=s
TTITLE5=s
TTITLE6=s
TTITLE7=s
TTITLE8=s
TTITLE9=s
EXTD=
EXTT0=
EXTT1=
EXTT2=
EXTT3=
EXTT4=
EXTT5=
EXTT6=
EXTT7=
EXTT8=
EXTT9=
PLAYORDER=
